<?xml version="1.0" encoding="utf-8"?>
<!-- Generator: Adobe Illustrator 19.0.0, SVG Export Plug-In . SVG Version: 6.00 Build 0)  -->
<svg version="1.1" id="Livello_1" xmlns="http://www.w3.org/2000/svg" xmlns:xlink="http://www.w3.org/1999/xlink" x="0px" y="0px"
	 viewBox="0 0 595.3 595.3" style="enable-background:new 0 0 595.3 595.3;" xml:space="preserve">
<g>
	<path d="M188.2,241.9c-1.3-0.6-3.1-1.3-4.8-2.1c-27.7-13.3-55.3-26.6-83-40c-0.4-0.2-0.7-0.3-1-0.5c-3.4-2-3.4-5.9,0.1-7.7
		c4.7-2.5,9.4-4.8,14.2-7.1c31.2-15,62.3-30.1,93.5-45c22.6-10.8,45.4-21.5,68.1-32.1c7.3-3.4,14.9-3.5,22.2-0.1
		c19,8.8,38,17.7,56.9,26.7c32.5,15.4,64.9,30.9,97.3,46.4c6.6,3.2,13.2,6.5,19.8,9.8c0.7,0.4,1.4,0.7,2.1,1.1
		c1.6,0.9,2.7,2.2,2.7,4.2c-0.1,1.9-1.2,3.1-2.8,3.9c-5,2.5-10,5.1-15.1,7.5c-34.9,16.8-69.8,33.6-104.8,50.3
		c-18.6,8.9-37.4,17.6-56.1,26.3c-6.7,3.1-13.6,3.2-20.3,0.3c-10.2-4.3-20.2-9-30.2-13.7c-13.6-6.5-27.2-13.2-40.8-19.8
		c-1-0.5-1.9-1-2.8-1.6c-1.6-1.2-1.6-2,0.1-3.1c2-1.2,4-2.3,6-3.4c20.2-10.5,40.5-21,60.7-31.5c1.3-0.7,2.7-1.2,4-1.8
		c2.2-1,4.4-1.2,6.9-0.8c5.3,0.8,10.7,0.5,15.8-1.2c3.5-1.1,6.4-3.3,8.7-6.2c3.4-4.3,2.5-9.5-2.5-13.1c-5.3-3.9-11.5-5.2-18-5
		c-5.3,0.2-10.2,1.5-14.5,4.8c-3.2,2.5-5.4,5.5-4.9,9.9c0.1,0.8-0.7,1.9-1.5,2.4c-2.6,1.7-5.2,3.3-8,4.7
		c-17.6,9.2-35.2,18.4-52.8,27.7c-3.7,1.9-7.3,4-10.8,6.2C190.9,239,189.9,240.4,188.2,241.9z"/>
	<path d="M207.5,262.9c3.6,1.7,7,3.2,10.3,4.8c19.3,9.1,38.5,18.3,57.9,27.3c6.7,3.1,13.6,3.3,20.5,0.1c26.4-12.5,52.9-25,79.3-37.5
		c8.9-4.2,17.7-8.5,26.5-12.8c0.4-0.2,0.8-0.3,1.5-0.6c0.1,0.7,0.2,1.3,0.2,1.8c0.1,15.8,0.3,31.7,0.4,47.5c0,0.9-0.3,1.9-0.6,2.7
		c-4.4,10.4-11.6,18.5-20.3,25.4c-15.4,12.5-32.9,20.9-51.8,26.7c-21.4,6.5-43.2,8.2-65.3,5.5c-15.6-1.9-30.6-6.4-45.2-12.3
		c-3.8-1.5-5-3.6-5.4-7.3c-2-17.9-4.3-35.7-6.4-53.5c-0.6-5.1-1.1-10.3-1.6-15.4C207.5,264.7,207.5,264,207.5,262.9z"/>
	<path d="M235,504.8c0.8-1.2,1.6-2.4,2.5-3.6c9.2-12,11.7-25.5,9.2-40.1c-2.7-15.7-10.9-28.3-22.4-39c-5-4.7-10.3-9-16.3-12.4
		c-1.3-0.8-2.5-1.8-3.7-2.6c0.1-0.2,0.1-0.3,0.2-0.5c0.6-0.2,1.2-0.4,1.9-0.5c11.1-1.9,22.3-3.6,33.4-5.6
		c12.2-2.1,24.4-4.3,36.6-6.7c13.9-2.7,27.7-5.6,41.6-8.4c3.2-0.7,6.5-1.7,9.7-1.9c10.2-0.8,18.5,3.4,25.3,10.7
		c2.4,2.6,4.3,5.6,6.5,8.3c1,1.2,0.8,1.9-0.4,2.8c-5.6,4.1-8.3,9.9-9.1,16.7c-0.3,2.4,0.3,4.9,0.3,7.3c0,1.5,0.3,3.1-0.2,4.4
		c-2.5,6.3-5.2,12.5-7.9,18.8c-2,4.7-4.2,9.3-6.2,14c-0.5,1.2-1.2,1.9-2.5,2.3c-26.8,8.7-53.2,18.5-79.5,28.8
		c-5.6,2.2-11.2,4.6-16.9,6.8c-0.6,0.2-1.2,0.5-1.8,0.7C235.3,505,235.1,504.9,235,504.8z"/>
	<path d="M349.6,377.6c8-2.2,16-4.2,23.8-6.4c20.4-5.8,40.7-11.7,61-17.4c8.9-2.5,17.9-4.9,26.8-7.2c5.5-1.4,10.6,0.4,15.4,2.8
		c8.5,4.3,14.3,11.2,18.6,19.5c7,13.5,7.9,27.4,2.5,41.5c-4.8,12.4-13.4,20.4-26.8,23.1c-13.6,2.7-27.2,5.9-40.8,9
		c-8.7,2-17.4,4.2-26,6.3c-1.2,0.3-1.8,0.1-2.5-0.9c-3.6-5.2-7.3-10.4-10.9-15.6c-0.6-0.8-0.9-1.9-0.9-2.9
		c-0.2-4.3-0.2-8.5-1.7-12.6c-2.2-6.2-6.1-10.8-12.2-13.3c-2.6-1.1-4.5-2.7-5.8-5.3c-4.1-8.1-10.3-14.4-18.3-18.7
		c-0.7-0.4-1.3-0.8-2-1.3C349.8,378.1,349.7,377.9,349.6,377.6z"/>
	<path d="M134.6,462.6c0.1-9.2,1.4-18.1,5.7-26.4c5.6-10.6,14.1-17.8,25.3-21.9c3.7-1.3,7.5-2.4,11.4-3c8-1.3,15.6,0.7,22.7,4.1
		c15.6,7.3,27.3,18.7,34.4,34.4c4.8,10.7,6.7,21.8,3.4,33.3c-3.3,11.6-11.1,19.3-22,23.7c-20.6,8.2-42.5-2.6-52-20.6
		c-5.1-9.7-6.6-19.8-2.6-30.3c5.2-13.8,18.7-19.2,32.2-13.1c8.3,3.8,14.2,10.1,18.5,18c1.1,2,0.8,2.7-1.3,3.7
		c-1.9,0.9-3.8,1.7-5.7,2.6c-1,0.5-1.5,0.3-2-0.7c-1.9-4-5-7-8.1-10c-5.3-5.1-18.1-4.4-22.3,5.3c-2.6,5.9-2.2,11.9,0.2,17.7
		c3.9,9.3,10.6,15.9,20.6,18c8.6,1.8,17,0.5,23.5-6.3c5.4-5.6,6.8-12.7,6.2-20.2c-1.4-16.1-10.1-27.4-24.1-34.8
		c-8.1-4.3-16.8-5.6-25.6-2.9c-11.9,3.7-18.8,12.3-21.6,24.2c-1.9,7.9-1.4,15.8,0.8,23.7c0.3,1.2,0.1,2.1-1,2.7
		c-3.2,1.5-6.4,3.1-9.6,4.4c-1.6,0.7-2.6,0.1-3.1-1.9c-1.2-4.9-2.3-9.8-3.2-14.8C134.7,468.5,134.8,465.5,134.6,462.6z"/>
	<path d="M194.4,259.6c0.3,1.7,0.6,3.4,0.8,5.1c1.6,12,3.2,24.1,4.8,36.1c1.6,12.3,3.3,24.6,4.8,36.9c1,7.7,1.8,15.4,2.5,23.1
		c0.4,3.8-0.3,4.9-3.8,6.3c-5.6,2.2-11.3,2.1-17,0.7c-2.4-0.6-4.2-2.1-5.7-4c-0.4-0.5-0.5-1.3-0.4-1.8c2.1-16,4.2-32.1,6.3-48.1
		c1.6-11.9,3.1-23.8,4.7-35.7c0.8-6.2,1.7-12.3,2.5-18.5C194,259.6,194.2,259.6,194.4,259.6z"/>
	<path d="M174.7,308.8c-0.3-0.6-0.6-1.2-1-1.7c-2.1-3.9-4.3-7.7-6.4-11.6c-0.3-0.5-0.3-1.2-0.3-1.8c0-16.2,0-32.3,0-48.5
		c0-0.5,0.1-1,0.1-1.6c0.5,0.1,0.9,0.2,1.2,0.3c4.4,2.1,8.7,4.1,13.1,6.2c1,0.5,1.3,1.1,1.2,2.1c-1.6,12.8-3.2,25.6-4.8,38.4
		c-0.7,5.5-1.4,10.9-2.1,16.4c-0.1,0.5-0.2,0.9-0.3,1.4C175.1,308.5,174.9,308.7,174.7,308.8z"/>
	<path d="M366.7,482.2c-1.4-0.8-2.5-1.4-3.4-2.1c-2-1.5-4-2.9-5.8-4.5c-1.3-1.2-2.4-1.2-3.9-0.3c-3.6,2-7.3,3.9-11,5.8
		c-0.7,0.4-1.4,0.6-2.6,1c0.3-1.1,0.4-1.7,0.6-2.3c4.2-10.1,8.5-20.2,12.7-30.3c0.8-1.9,1.8-3.8,2.6-5.7c0.5-1.2,1.2-1.6,2.3-0.7
		c3.1,2.5,6.8,3.7,10.6,4.6c2.3,0.6,2.4,0.6,2,3.1c-1.1,9-2.3,18-3.4,27.1C367.1,479.1,366.9,480.4,366.7,482.2z"/>
	<path d="M179.3,469.6c0.1-0.9,0.2-1.9,0.3-2.8c0.7-4.5,5.3-6.6,9.2-4.1c2.9,1.8,4.6,4.6,6,7.5c0.8,1.5,1.4,3.1,2.1,4.6
		c0.9,2.1,2,2.9,4.2,2.2c2.7-0.8,5.4-1.8,8.1-2.8c1.3-0.4,2.5-0.9,3.8-1.3c0.9-0.3,1.4,0.1,1.4,1.1c-0.7,8.1-2.9,12.8-10.5,14.9
		C192.3,492.1,179.4,482.5,179.3,469.6z"/>
	<path d="M381.2,426.6c-0.1,3.8-1.7,7.7-5.4,10.5c-3.8,2.9-7.7,2.8-11.4-0.3c-6.7-5.6-7.9-15-2.7-22c3.4-4.6,9.3-5.3,13.8-1.7
		C378.8,415.9,381.2,421.1,381.2,426.6z"/>
	<path d="M403.9,466.5c-2.3-0.3-4.2-0.6-6-0.9c-3.6-0.6-4.7-0.1-6.7,3.1c-1.5,2.4-2.8,4.9-4.2,7.3c-0.3,0.6-0.7,1.1-1.3,2
		c-0.7-1.8-1.2-3.2-1.7-4.6c-2.8-8.1-5.6-16.2-8.5-24.3c-0.4-1.2-0.2-1.7,0.9-2.4c2.7-1.6,5.2-3.5,7.7-5.3c0.9-0.7,1.6-1.2,2.5,0.1
		c5.5,7.9,11,15.7,16.5,23.6C403.4,465.3,403.5,465.7,403.9,466.5z"/>
</g>
</svg>
