<?xml version="1.0" encoding="utf-8"?>
<!-- Generator: Adobe Illustrator 19.0.0, SVG Export Plug-In . SVG Version: 6.00 Build 0)  -->
<svg version="1.1" id="Livello_1" xmlns="http://www.w3.org/2000/svg" xmlns:xlink="http://www.w3.org/1999/xlink" x="0px" y="0px"
	 viewBox="0 0 595.3 595.3" style="enable-background:new 0 0 595.3 595.3;" xml:space="preserve">
<g id="XMLID_2_">
	<path fill="#000000" id="XMLID_10_" d="M275.3,227.3c-12.1,5.9-22.6,10.8-32.7,16.3c-2.4,1.3-4,4.7-5,7.5c-3.7,9.9-7.2,19.9-10.3,30
		c-2,6.7-5.8,8.2-11.9,5.7c-3.3-1.3-7.4-1.5-9.8-3.7c-2.4-2.3-5.1-6.9-4.3-9.5c5.3-17.5,11.3-34.9,17.7-52c1.2-3.2,4.6-6.2,7.7-7.8
		c17.6-8.9,35.3-17.7,53.3-25.7c4.8-2.1,11-2.2,16.3-1.5c16.1,2.1,32.1,4.6,48,7.8c5.1,1,10.3,4,14.4,7.4c6,4.9,11.6,10.4,16.5,16.4
		c12.2,15,26.2,24.9,46.9,20.7c8.9-1.8,9.5,4.8,9.2,11.4c-0.3,6.5,1.8,14.2-9.1,14c-14.1-0.3-28.3,0.4-42.3-0.3
		c-4.4-0.2-9.2-3-12.7-6c-6.3-5.5-11.8-12-19.3-19.9c-4.8,18.4-9,34.3-13.4,51.3c16.5,5.3,32.2,11.2,48.5,15.3
		c10.8,2.7,13.8,8.3,13.3,18.7c-0.8,14.4-0.5,28.9-0.1,43.4c0.2,8.4-2.5,12.2-11.5,12c-25.7-0.6-23.8,2.5-22.9-23.4
		c0.4-11.5-3.4-16.5-14.2-19.9c-25.2-8-49.8-17.8-74.7-26.4c-6.9-2.4-9.3-5.5-8-13.1C268.7,273.7,271.7,251.4,275.3,227.3z"/>
	<path fill="#000000" id="XMLID_9_" d="M232.6,395.4c-3.8-1.3-6.2-2-8.5-2.9c-30.4-11-60.8-22.3-91.4-32.9c-8.8-3-10.8-6.9-7.3-15.5
		c6.1-15,11.6-30.3,16.7-45.6c2.4-7.2,6.3-8.4,12.8-5.9c32,11.9,64,23.7,96.1,35.3c5.9,2.1,7.7,5.5,5.6,11.2
		c-6.2,16.8-12.3,33.7-18.7,50.5C237,392.1,234.2,393.8,232.6,395.4z"/>
	<path fill="#000000" id="XMLID_8_" d="M280,325.9c13.2,4.9,25.1,9.3,37.7,14c-6.1,24.8-6.4,50.8-26.5,70.1c-7.5,7.3-12.7,16.9-19.9,24.6
		c-2.1,2.2-7.5,1.4-11.4,1.8c-0.5,0.1-1.1-0.8-1.7-1.2c-21.9-17.9-20.6-13.6-4.1-32.2c15.3-17.2,16.5-38.2,21.6-58.4
		C277.3,338.7,278.4,332.9,280,325.9z"/>
	<path fill="#000000" id="XMLID_7_" d="M326.2,178.1c-18,0.1-32.5-14.3-32.4-32.1c0.1-17.6,15-32.2,32.7-32c17.2,0.2,31.6,14.5,31.9,31.7
		C358.6,163.4,344.1,178,326.2,178.1z"/>
	<path fill="#000000" id="XMLID_6_" d="M416.4,395.8c15.1,0,30.3,0.3,45.4-0.1c7.5-0.2,9.7,2.5,9.6,9.7c-0.1,6.7-2.1,9.4-9.1,9.3
		c-31-0.3-62-0.3-92.9,0c-8.2,0.1-8.9-3.9-9.1-10.4c-0.2-7.4,3.1-8.8,9.6-8.6C385.4,396,400.9,395.8,416.4,395.8z"/>
	<path fill="#000000" id="XMLID_5_" d="M358.7,446.9c-15.8,0-31.7-0.2-47.5,0.1c-6.6,0.1-8.6-2.4-8.4-8.7c0.1-5.9,0.5-10.2,8.3-10.1
		c31.3,0.2,62.7,0.2,94,0c7.5-0.1,8.6,3.7,8.6,10c0,6.1-1.7,9-8.4,8.8C389.7,446.6,374.2,446.9,358.7,446.9z"/>
	<path fill="#000000" id="XMLID_4_" d="M300.3,481.2c-15.2,0-30.4-0.3-45.5,0.1c-7.2,0.2-10.2-2-10.1-9.6c0.1-7.1,2.9-9,9.6-9
		c30.7,0.2,61.4,0.2,92.2,0c6.7,0,9.4,1.9,9.5,9c0.1,7.6-2.9,9.7-10.1,9.6C330.7,480.9,315.5,481.2,300.3,481.2z"/>
	<path fill="#000000" id="XMLID_3_" d="M182.6,296.3c1.8-4.8,3-8.3,4.8-13c14.2,5.2,27.8,10.1,42.6,15.5c-1.4,4.3-2.6,8.1-4.2,13.1
		C211.3,306.7,197.6,301.8,182.6,296.3z"/>
</g>
</svg>
