<?xml version="1.0" encoding="utf-8"?>
<!-- Generator: Adobe Illustrator 19.0.0, SVG Export Plug-In . SVG Version: 6.00 Build 0)  -->
<svg version="1.1" id="Livello_1" xmlns="http://www.w3.org/2000/svg" xmlns:xlink="http://www.w3.org/1999/xlink" x="0px" y="0px"
	 viewBox="214 -92.1 1024 1024" style="enable-background:new 214 -92.1 1024 1024;" xml:space="preserve">
<style type="text/css">
	.st0{fill:#007EB1;}
	.st1{fill:#FFFFFF;}
</style>
<path class="st0" d="M1115.1,423.1c-1.6,211.9-176.6,389.7-390.7,388.8C509,811,335,629.8,336.9,416.7
	c1.9-210.3,174.5-384.9,387.5-388.8C941,30.1,1116.6,209.2,1115.1,423.1"/>
<polygon class="st0" points="1005.1,241.1 724.8,400.8 444.6,241.2 724.9,81.5 "/>
<polygon class="st0" points="717.9,763.7 437.9,594.5 437.9,256 717.9,416.7 "/>
<polygon class="st0" points="734.1,763.7 1014.1,594.5 1014.1,256 734.1,416.7 "/>
<path class="st1" d="M970.1,237.8L725.9,385.6l-45.6-25.7c70.5-39.6,141.1-79.3,211.6-118.9c-23.4-11.5-46.8-23-70.2-34.5L625,324.5
	l-45.6-25.7l0.6-0.3l-99.6-56.3c-0.6-0.4-1.3-0.8-1.9-1.2c80.3-47.1,160.6-94.3,240.9-141.4c14.1,7.5,28.2,15,42.3,22.5L572,237.8
	l57.6,32.6c66.8-36.6,133.6-73.2,200.4-109.8C876.7,186.3,923.4,212,970.1,237.8"/>
<path class="st1" d="M451.4,299.2l250.3,137.5l-0.3,51.8C631.9,450.7,562.5,412.9,493,375c0,22.5,0.1,45,0.1,67.5
	c68.1,37,136.1,74,204.2,110.9c-0.6,55.7-1.3,111.3-1.9,167c-81-45.9-162-91.9-243-137.8c-0.3-15.8-0.6-31.6-0.9-47.4
	c65.1,35.4,130.2,70.9,195.3,106.3l0.5-65.5c-64.4-35.9-128.8-71.8-193.2-107.6C453.2,411.9,452.3,355.6,451.4,299.2"/>
<path class="st1" d="M753.7,429.5v298.9c81.4-47.1,162.8-94.3,244.2-141.4V291.3L753.7,429.5z M795.5,651.1l-0.4-45.6l157.1-89.4
	l0.2,47.3C900.1,592.7,847.8,621.9,795.5,651.1z M794.6,557.2l-1-99.7l160.8-90.4l-0.3,97.5L794.6,557.2z"/>
</svg>
